<svg width="514" height="664" viewBox="0 0 514 664" fill="none" xmlns="http://www.w3.org/2000/svg">
<g clip-path="url(#clip0_6:110)">
<path d="M85.9802 243.019C103.002 212.794 127.926 188.121 160.754 169C193.581 149.878 230.968 140.318 272.914 140.318C317.899 140.318 358.326 151.112 394.193 172.701C430.059 194.29 458.327 224.822 478.996 264.299C499.665 303.159 510 348.495 510 400.308C510 451.505 499.665 497.149 478.996 537.243C458.327 577.336 429.755 608.486 393.281 630.692C357.414 652.897 317.291 664 272.914 664C229.752 664 191.757 654.439 158.93 635.318C126.71 616.196 102.394 591.832 85.9802 562.224V655.673H3V-29H85.9802V243.019ZM425.196 400.308C425.196 362.065 417.597 328.757 402.399 300.383C387.201 272.009 366.532 250.421 340.392 235.617C314.86 220.813 286.592 213.411 255.588 213.411C225.192 213.411 196.924 221.121 170.784 236.542C145.252 251.346 124.583 273.243 108.777 302.234C93.5791 330.607 85.9802 363.607 85.9802 401.234C85.9802 439.477 93.5791 473.093 108.777 502.084C124.583 530.458 145.252 552.355 170.784 567.776C196.924 582.579 225.192 589.981 255.588 589.981C286.592 589.981 314.86 582.579 340.392 567.776C366.532 552.355 387.201 530.458 402.399 502.084C417.597 473.093 425.196 439.168 425.196 400.308Z" fill="#F2F2F2"/>
<mask id="mask0_6:110" style="mask-type:alpha" maskUnits="userSpaceOnUse" x="81" y="210" width="353" height="390">
<path d="M434 405C434.061 451.03 419.324 495.589 392.415 530.731C391.438 532.013 390.443 533.275 389.429 534.53C377.499 549.354 363.601 562.092 348.211 572.309C344.681 574.65 341.074 576.856 337.389 578.928C337.017 579.137 336.638 579.346 336.265 579.549C335.819 579.798 335.368 580.041 334.916 580.284C325.591 585.326 315.879 589.44 305.894 592.578C304.856 592.902 303.815 593.217 302.773 593.522C289.638 597.362 276.145 599.511 262.563 599.926C261.854 599.946 261.158 599.96 260.486 599.973C260.248 599.98 260.016 599.986 259.784 599.986C259.021 599.993 258.263 600 257.5 600C243.187 600.012 228.926 598.102 215.03 594.312C213.638 593.934 212.251 593.536 210.871 593.118C203.601 590.925 196.467 588.213 189.514 585.001C185.85 583.314 182.25 581.494 178.716 579.542C177.916 579.097 177.116 578.651 176.328 578.192C175.992 578.01 175.663 577.815 175.333 577.626C156.497 566.642 139.605 552 125.467 534.402C124.49 533.194 123.531 531.966 122.584 530.731C107.006 510.325 95.3863 486.603 88.4436 461.034C81.501 435.465 79.3837 408.593 82.2229 382.083C85.0621 355.573 92.7973 329.99 104.949 306.917C117.102 283.844 133.412 263.773 152.87 247.947C153.872 247.131 154.88 246.321 155.9 245.532C156.101 245.377 156.303 245.221 156.504 245.066C174.425 231.198 194.539 221.162 215.806 215.479C217.015 215.148 218.224 214.838 219.446 214.548C242.48 208.981 266.286 208.52 289.484 213.192C290.699 213.441 291.914 213.698 293.124 213.974C314.2 218.75 334.302 227.769 352.425 240.579C352.828 240.863 353.231 241.146 353.634 241.443C354.447 242.023 355.259 242.617 356.059 243.217C380.067 261.05 399.735 285.135 413.327 313.349C426.919 341.563 434.019 373.038 434 405V405Z" fill="#F2F2F2"/>
</mask>
<g mask="url(#mask0_6:110)">
<path d="M412.78 268.485H135.28C132.896 268.488 130.61 269.394 128.923 271.004C127.236 272.613 126.286 274.796 126.28 277.074V455.982C126.282 458.262 127.231 460.448 128.918 462.06C130.606 463.672 132.894 464.578 135.28 464.58H412.78C415.166 464.578 417.454 463.672 419.142 462.06C420.829 460.448 421.778 458.262 421.78 455.982V277.074C421.774 274.796 420.824 272.613 419.137 271.004C417.45 269.394 415.164 268.488 412.78 268.485V268.485Z" fill="#3F3D56"/>
<path d="M410.46 274.695H137.59C136.313 274.698 135.09 275.184 134.188 276.048C133.287 276.911 132.78 278.081 132.78 279.3V453.775C132.782 454.993 133.29 456.161 134.191 457.022C135.093 457.883 136.315 458.368 137.59 458.37H410.46C411.735 458.368 412.957 457.883 413.859 457.022C414.76 456.161 415.268 454.993 415.27 453.775V279.3C415.27 278.081 414.763 276.911 413.862 276.048C412.96 275.184 411.737 274.698 410.46 274.695V274.695Z" fill="#6C63FF"/>
<path d="M396.748 298.73H141.425C141.159 298.724 140.907 298.62 140.721 298.438C140.535 298.257 140.431 298.014 140.431 297.76C140.431 297.506 140.535 297.263 140.721 297.081C140.907 296.9 141.159 296.795 141.425 296.79H396.748C397.014 296.795 397.266 296.9 397.452 297.081C397.637 297.263 397.741 297.506 397.741 297.76C397.741 298.014 397.637 298.257 397.452 298.438C397.266 298.62 397.014 298.724 396.748 298.73V298.73Z" fill="#3F3D56"/>
<path d="M158.805 291.837C162.091 291.837 164.755 289.235 164.755 286.025C164.755 282.815 162.091 280.214 158.805 280.214C155.519 280.214 152.854 282.815 152.854 286.025C152.854 289.235 155.519 291.837 158.805 291.837Z" fill="#3F3D56"/>
<path d="M179.361 291.837C182.647 291.837 185.311 289.235 185.311 286.025C185.311 282.815 182.647 280.214 179.361 280.214C176.075 280.214 173.411 282.815 173.411 286.025C173.411 289.235 176.075 291.837 179.361 291.837Z" fill="#3F3D56"/>
<path d="M199.917 291.837C203.203 291.837 205.867 289.235 205.867 286.025C205.867 282.815 203.203 280.214 199.917 280.214C196.631 280.214 193.967 282.815 193.967 286.025C193.967 289.235 196.631 291.837 199.917 291.837Z" fill="#3F3D56"/>
<path d="M384.37 281.651H369.77C369.481 281.657 369.207 281.771 369.005 281.968C368.803 282.166 368.69 282.431 368.69 282.706C368.69 282.982 368.803 283.247 369.005 283.444C369.207 283.642 369.481 283.756 369.77 283.762H384.37C384.66 283.758 384.937 283.645 385.141 283.448C385.345 283.25 385.46 282.984 385.46 282.706C385.46 282.429 385.345 282.163 385.141 281.965C384.937 281.767 384.66 281.655 384.37 281.651Z" fill="#3F3D56"/>
<path d="M384.37 285.616H369.77C369.481 285.622 369.206 285.736 369.004 285.933C368.802 286.13 368.689 286.395 368.689 286.671C368.689 286.947 368.802 287.212 369.004 287.41C369.206 287.607 369.481 287.721 369.77 287.727H384.37C384.661 287.724 384.938 287.611 385.143 287.413C385.347 287.216 385.462 286.949 385.462 286.671C385.462 286.393 385.347 286.127 385.143 285.929C384.938 285.732 384.661 285.619 384.37 285.616V285.616Z" fill="#3F3D56"/>
<path d="M384.37 289.58H369.77C369.481 289.587 369.207 289.701 369.005 289.898C368.803 290.095 368.69 290.36 368.69 290.636C368.69 290.912 368.803 291.177 369.005 291.374C369.207 291.571 369.481 291.685 369.77 291.692H384.37C384.66 291.688 384.937 291.575 385.141 291.377C385.345 291.18 385.46 290.914 385.46 290.636C385.46 290.359 385.345 290.092 385.141 289.895C384.937 289.697 384.66 289.584 384.37 289.58V289.58Z" fill="#3F3D56"/>
<path d="M163.44 321.274H158.194C156.603 321.274 155.314 322.506 155.314 324.026C155.314 325.545 156.603 326.777 158.194 326.777H163.44C165.031 326.777 166.32 325.545 166.32 324.026C166.32 322.506 165.031 321.274 163.44 321.274Z" fill="#E6E6E6"/>
<path d="M223.44 321.274H218.194C216.603 321.274 215.314 322.506 215.314 324.026C215.314 325.545 216.603 326.777 218.194 326.777H223.44C225.031 326.777 226.32 325.545 226.32 324.026C226.32 322.506 225.031 321.274 223.44 321.274Z" fill="#E6E6E6"/>
<path d="M240.44 321.274H235.194C233.603 321.274 232.314 322.506 232.314 324.026C232.314 325.545 233.603 326.777 235.194 326.777H240.44C242.031 326.777 243.32 325.545 243.32 324.026C243.32 322.506 242.031 321.274 240.44 321.274Z" fill="#E6E6E6"/>
<path d="M207.12 320.815H174.514C172.924 320.815 171.634 322.047 171.634 323.567C171.634 325.086 172.924 326.318 174.514 326.318H207.12C208.711 326.318 210 325.086 210 323.567C210 322.047 208.711 320.815 207.12 320.815Z" fill="#E6E6E6"/>
<path d="M287.12 320.815H254.514C252.924 320.815 251.634 322.047 251.634 323.567C251.634 325.086 252.924 326.318 254.514 326.318H287.12C288.711 326.318 290 325.086 290 323.567C290 322.047 288.711 320.815 287.12 320.815Z" fill="#E6E6E6"/>
<path d="M179.44 333.694H174.194C172.603 333.694 171.314 334.926 171.314 336.446C171.314 337.965 172.603 339.197 174.194 339.197H179.44C181.031 339.197 182.32 337.965 182.32 336.446C182.32 334.926 181.031 333.694 179.44 333.694Z" fill="#E6E6E6"/>
<path d="M239.44 333.694H234.194C232.603 333.694 231.314 334.926 231.314 336.446C231.314 337.965 232.603 339.197 234.194 339.197H239.44C241.031 339.197 242.32 337.965 242.32 336.446C242.32 334.926 241.031 333.694 239.44 333.694Z" fill="#E6E6E6"/>
<path d="M256.44 333.694H251.194C249.603 333.694 248.314 334.926 248.314 336.446C248.314 337.965 249.603 339.197 251.194 339.197H256.44C258.031 339.197 259.32 337.965 259.32 336.446C259.32 334.926 258.031 333.694 256.44 333.694Z" fill="#E6E6E6"/>
<path d="M223.12 333.235H190.514C188.924 333.235 187.634 334.467 187.634 335.987C187.634 337.507 188.924 338.738 190.514 338.738H223.12C224.711 338.738 226 337.507 226 335.987C226 334.467 224.711 333.235 223.12 333.235Z" fill="#E6E6E6"/>
<path d="M303.12 333.235H270.514C268.924 333.235 267.634 334.467 267.634 335.987C267.634 337.507 268.924 338.738 270.514 338.738H303.12C304.711 338.738 306 337.507 306 335.987C306 334.467 304.711 333.235 303.12 333.235Z" fill="#E6E6E6"/>
<path d="M195.44 346.114H190.194C188.603 346.114 187.314 347.346 187.314 348.866C187.314 350.385 188.603 351.617 190.194 351.617H195.44C197.031 351.617 198.32 350.385 198.32 348.866C198.32 347.346 197.031 346.114 195.44 346.114Z" fill="#E6E6E6"/>
<path d="M255.44 346.114H250.194C248.603 346.114 247.314 347.346 247.314 348.866C247.314 350.385 248.603 351.617 250.194 351.617H255.44C257.031 351.617 258.32 350.385 258.32 348.866C258.32 347.346 257.031 346.114 255.44 346.114Z" fill="#E6E6E6"/>
<path d="M272.44 346.114H267.194C265.603 346.114 264.314 347.346 264.314 348.866C264.314 350.385 265.603 351.617 267.194 351.617H272.44C274.031 351.617 275.32 350.385 275.32 348.866C275.32 347.346 274.031 346.114 272.44 346.114Z" fill="#E6E6E6"/>
<path d="M239.12 345.656H206.514C204.924 345.656 203.634 346.887 203.634 348.407C203.634 349.927 204.924 351.159 206.514 351.159H239.12C240.711 351.159 242 349.927 242 348.407C242 346.887 240.711 345.656 239.12 345.656Z" fill="#E6E6E6"/>
<path d="M319.12 345.656H286.514C284.924 345.656 283.634 346.887 283.634 348.407C283.634 349.927 284.924 351.159 286.514 351.159H319.12C320.711 351.159 322 349.927 322 348.407C322 346.887 320.711 345.656 319.12 345.656Z" fill="#E6E6E6"/>
<path d="M211.44 358.534H206.194C204.603 358.534 203.314 359.766 203.314 361.286C203.314 362.806 204.603 364.038 206.194 364.038H211.44C213.031 364.038 214.32 362.806 214.32 361.286C214.32 359.766 213.031 358.534 211.44 358.534Z" fill="#E6E6E6"/>
<path d="M271.44 358.534H266.194C264.603 358.534 263.314 359.766 263.314 361.286C263.314 362.806 264.603 364.038 266.194 364.038H271.44C273.031 364.038 274.32 362.806 274.32 361.286C274.32 359.766 273.031 358.534 271.44 358.534Z" fill="#E6E6E6"/>
<path d="M288.44 358.534H283.194C281.603 358.534 280.314 359.766 280.314 361.286C280.314 362.806 281.603 364.038 283.194 364.038H288.44C290.031 364.038 291.32 362.806 291.32 361.286C291.32 359.766 290.031 358.534 288.44 358.534Z" fill="#E6E6E6"/>
<path d="M255.12 358.076H222.514C220.924 358.076 219.634 359.308 219.634 360.827C219.634 362.347 220.924 363.579 222.514 363.579H255.12C256.711 363.579 258 362.347 258 360.827C258 359.308 256.711 358.076 255.12 358.076Z" fill="#E6E6E6"/>
<path d="M223.44 407.922H218.194C216.603 407.922 215.314 409.154 215.314 410.674C215.314 412.193 216.603 413.425 218.194 413.425H223.44C225.031 413.425 226.32 412.193 226.32 410.674C226.32 409.154 225.031 407.922 223.44 407.922Z" fill="#E6E6E6"/>
<path d="M240.44 407.922H235.194C233.603 407.922 232.314 409.154 232.314 410.674C232.314 412.193 233.603 413.425 235.194 413.425H240.44C242.031 413.425 243.32 412.193 243.32 410.674C243.32 409.154 242.031 407.922 240.44 407.922Z" fill="#E6E6E6"/>
<path d="M287.12 408.381H254.514C252.924 408.381 251.634 409.613 251.634 411.133C251.634 412.652 252.924 413.884 254.514 413.884H287.12C288.711 413.884 290 412.652 290 411.133C290 409.613 288.711 408.381 287.12 408.381Z" fill="#E6E6E6"/>
<path d="M163.44 407.922H158.194C156.603 407.922 155.314 409.154 155.314 410.674C155.314 412.193 156.603 413.425 158.194 413.425H163.44C165.031 413.425 166.32 412.193 166.32 410.674C166.32 409.154 165.031 407.922 163.44 407.922Z" fill="#E6E6E6"/>
<path d="M207.12 408.381H174.514C172.924 408.381 171.634 409.613 171.634 411.133C171.634 412.652 172.924 413.884 174.514 413.884H207.12C208.711 413.884 210 412.652 210 411.133C210 409.613 208.711 408.381 207.12 408.381Z" fill="#E6E6E6"/>
<path d="M179.44 395.502H174.194C172.603 395.502 171.314 396.734 171.314 398.254C171.314 399.773 172.603 401.005 174.194 401.005H179.44C181.031 401.005 182.32 399.773 182.32 398.254C182.32 396.734 181.031 395.502 179.44 395.502Z" fill="#E6E6E6"/>
<path d="M239.44 395.502H234.194C232.603 395.502 231.314 396.734 231.314 398.254C231.314 399.773 232.603 401.005 234.194 401.005H239.44C241.031 401.005 242.32 399.773 242.32 398.254C242.32 396.734 241.031 395.502 239.44 395.502Z" fill="#E6E6E6"/>
<path d="M256.44 395.502H251.194C249.603 395.502 248.314 396.734 248.314 398.254C248.314 399.773 249.603 401.005 251.194 401.005H256.44C258.031 401.005 259.32 399.773 259.32 398.254C259.32 396.734 258.031 395.502 256.44 395.502Z" fill="#E6E6E6"/>
<path d="M223.12 395.961H190.514C188.924 395.961 187.634 397.193 187.634 398.712C187.634 400.232 188.924 401.464 190.514 401.464H223.12C224.711 401.464 226 400.232 226 398.712C226 397.193 224.711 395.961 223.12 395.961Z" fill="#E6E6E6"/>
<path d="M195.44 383.082H190.194C188.603 383.082 187.314 384.314 187.314 385.833C187.314 387.353 188.603 388.585 190.194 388.585H195.44C197.031 388.585 198.32 387.353 198.32 385.833C198.32 384.314 197.031 383.082 195.44 383.082Z" fill="#E6E6E6"/>
<path d="M255.44 383.082H250.194C248.603 383.082 247.314 384.314 247.314 385.833C247.314 387.353 248.603 388.585 250.194 388.585H255.44C257.031 388.585 258.32 387.353 258.32 385.833C258.32 384.314 257.031 383.082 255.44 383.082Z" fill="#E6E6E6"/>
<path d="M272.44 383.082H267.194C265.603 383.082 264.314 384.314 264.314 385.833C264.314 387.353 265.603 388.585 267.194 388.585H272.44C274.031 388.585 275.32 387.353 275.32 385.833C275.32 384.314 274.031 383.082 272.44 383.082Z" fill="#E6E6E6"/>
<path d="M239.12 383.541H206.514C204.924 383.541 203.634 384.773 203.634 386.292C203.634 387.812 204.924 389.044 206.514 389.044H239.12C240.711 389.044 242 387.812 242 386.292C242 384.773 240.711 383.541 239.12 383.541Z" fill="#E6E6E6"/>
<path d="M211.44 370.662H206.194C204.603 370.662 203.314 371.894 203.314 373.413C203.314 374.933 204.603 376.165 206.194 376.165H211.44C213.031 376.165 214.32 374.933 214.32 373.413C214.32 371.894 213.031 370.662 211.44 370.662Z" fill="#E6E6E6"/>
<path d="M271.44 370.662H266.194C264.603 370.662 263.314 371.894 263.314 373.413C263.314 374.933 264.603 376.165 266.194 376.165H271.44C273.031 376.165 274.32 374.933 274.32 373.413C274.32 371.894 273.031 370.662 271.44 370.662Z" fill="#E6E6E6"/>
<path d="M288.44 370.662H283.194C281.603 370.662 280.314 371.894 280.314 373.413C280.314 374.933 281.603 376.165 283.194 376.165H288.44C290.031 376.165 291.32 374.933 291.32 373.413C291.32 371.894 290.031 370.662 288.44 370.662Z" fill="#E6E6E6"/>
<path d="M255.12 371.121H222.514C220.924 371.121 219.634 372.352 219.634 373.872C219.634 375.392 220.924 376.624 222.514 376.624H255.12C256.711 376.624 258 375.392 258 373.872C258 372.352 256.711 371.121 255.12 371.121Z" fill="#E6E6E6"/>
<mask id="mask1_6:110" style="mask-type:alpha" maskUnits="userSpaceOnUse" x="81" y="210" width="352" height="383">
<path d="M433 401.5C433.061 446.704 418.365 490.463 391.533 524.974C390.559 526.233 389.566 527.472 388.555 528.705C376.659 543.263 362.8 555.772 347.454 565.806C343.934 568.105 340.337 570.272 336.663 572.306C336.291 572.511 335.914 572.717 335.542 572.916C335.098 573.161 334.647 573.399 334.196 573.638C324.899 578.59 315.214 582.63 305.257 585.711C304.221 586.029 303.184 586.338 302.145 586.639C289.047 590.409 275.592 592.52 262.048 592.927C261.342 592.947 260.648 592.96 259.978 592.973C259.74 592.98 259.509 592.987 259.278 592.987C258.516 592.993 257.761 593 257 593C242.728 593.011 228.507 591.136 214.65 587.414C213.262 587.043 211.879 586.652 210.503 586.241C203.253 584.088 196.14 581.425 189.206 578.27C185.552 576.613 181.963 574.826 178.439 572.909C177.642 572.472 176.844 572.034 176.058 571.584C175.723 571.405 175.394 571.213 175.066 571.027C156.283 560.241 139.439 545.862 125.341 528.579C124.367 527.393 123.411 526.187 122.467 524.974C106.933 504.935 95.3455 481.638 88.4225 456.528C81.4996 431.418 79.3883 405.029 82.2194 378.995C85.0505 352.961 92.7639 327.836 104.882 305.177C116.999 282.519 133.263 262.808 152.667 247.266C153.665 246.465 154.67 245.669 155.687 244.894C155.888 244.742 156.089 244.589 156.29 244.437C174.16 230.817 194.217 220.962 215.424 215.381C216.63 215.056 217.835 214.751 219.053 214.466C242.023 208.999 265.761 208.547 288.893 213.134C290.105 213.379 291.317 213.631 292.523 213.903C313.539 218.593 333.584 227.45 351.656 240.03C352.058 240.309 352.46 240.587 352.862 240.879C353.672 241.448 354.482 242.032 355.28 242.621C379.22 260.133 398.832 283.786 412.386 311.494C425.94 339.201 433.019 370.112 433 401.5V401.5Z" fill="#F2F2F2"/>
</mask>
<g mask="url(#mask1_6:110)">
<path d="M423.385 465H122.615C117.147 465 111.904 467.476 108.038 471.883C104.172 476.29 102 482.267 102 488.5C102 494.733 104.172 500.71 108.038 505.117C111.904 509.524 117.147 512 122.615 512H423.385C426.313 512.001 429.207 511.289 431.874 509.912C434.541 508.536 436.919 506.526 438.85 504.018C439.724 502.884 440.502 501.657 441.171 500.355C441.69 499.357 442.14 498.314 442.517 497.236C443.772 493.671 444.242 489.809 443.883 485.989C443.525 482.169 442.35 478.507 440.462 475.325C438.573 472.143 436.029 469.538 433.052 467.738C430.075 465.938 426.756 464.998 423.385 465V465Z" fill="#CCCCCC"/>
<path d="M443 500C436.315 508.889 429.084 517.243 421.36 525H124.64C116.916 517.243 109.685 508.889 103 500H443Z" fill="#3F3D56"/>
<path d="M305.28 421.396H240.36C240.01 421.393 239.662 421.444 239.33 421.549C238.625 421.757 238.009 422.176 237.572 422.743C237.134 423.311 236.899 423.997 236.9 424.702V522.687H308.75V424.702C308.75 424.267 308.659 423.837 308.485 423.435C308.31 423.034 308.054 422.669 307.732 422.362C307.41 422.055 307.027 421.812 306.607 421.646C306.186 421.48 305.735 421.396 305.28 421.396ZM280.71 469.739C280.712 471.329 280.164 472.874 279.15 474.134C278.183 475.357 276.838 476.259 275.305 476.713C273.773 477.167 272.13 477.151 270.608 476.665C269.086 476.18 267.762 475.25 266.822 474.008C265.882 472.765 265.375 471.272 265.37 469.739V458.37C265.389 456.439 266.205 454.592 267.641 453.232C269.078 451.873 271.018 451.11 273.04 451.11C275.062 451.11 277.002 451.873 278.439 453.232C279.875 454.592 280.691 456.439 280.71 458.37V469.739Z" fill="#2F2E41"/>
<path d="M236.68 519.554V529.003C236.68 529.493 236.883 529.963 237.245 530.31C237.606 530.657 238.097 530.854 238.61 530.856H307.04C307.552 530.852 308.042 530.655 308.404 530.308C308.765 529.961 308.968 529.492 308.97 529.003V519.554H236.68Z" fill="#3F3D56"/>
<path d="M399.81 587.349C399.2 587.645 398.58 587.941 397.97 588.228C382.17 595.775 369.53 600.065 352.24 604.765C350.78 589.192 349.37 561.82 348 544.853C347.64 540.448 347.28 536.751 346.93 534.143C346.842 532.756 346.545 531.388 346.05 530.082L346.11 534.143L346.26 544.853L347.13 606.103C325.623 611.54 303.529 614.582 281.29 615.17C280.13 615.198 278.99 615.217 277.89 615.237C277.5 615.246 277.12 615.256 276.74 615.256C275.49 615.265 274.25 615.275 273 615.275C249.564 615.291 226.213 612.587 203.46 607.221C203.95 591.81 204.44 564.744 204.91 544.853C205.01 540.964 205.1 537.343 205.2 534.143C205.39 527.302 205.59 522.372 205.78 520.719C205.612 521.012 205.481 521.323 205.39 521.646C204.464 525.766 203.832 529.941 203.5 534.143C203.15 537.343 202.8 540.964 202.45 544.853C200.59 565.518 198.65 593.616 196.65 605.53C184.746 602.425 173.064 598.586 161.68 594.036C155.68 591.648 149.787 589.071 144 586.307C145.1 579.428 146.25 571.718 147.43 563.722C148.35 557.521 149.3 551.149 150.27 544.853C151.77 535.127 153.31 525.592 154.87 517.194C157.15 504.927 159.49 495.067 161.81 490.538C164.01 486.239 166.21 481.997 168.34 477.937C169.08 476.513 169.82 475.109 170.54 473.742C170.71 473.418 170.88 473.102 171.05 472.787C172.58 469.911 174.06 467.16 175.47 464.58C176.68 462.373 177.83 460.291 178.92 458.37C181.56 453.708 183.8 449.991 185.46 447.641C192.4 437.583 202.732 430.096 214.74 426.422L215.04 426.345L215.25 426.431L235.7 420.431L238.69 419.552L240.7 418.96L247.78 413.811L251.63 411.011L255.24 408.384L262.3 403.253L306.01 405.823L314.52 425.399L333.58 432.059L333.91 431.915L334.2 431.801L334.5 431.877C346.506 435.555 356.837 443.041 363.78 453.096C364.72 454.443 365.86 456.221 367.15 458.37C368.25 460.195 369.45 462.278 370.75 464.58C372.6 467.857 374.62 471.555 376.76 475.558C377.23 476.437 377.71 477.335 378.19 478.242C379.08 479.924 379.983 481.64 380.9 483.392C383.03 487.452 385.23 491.694 387.43 496.003C389.34 499.739 391.27 507.42 393.17 517.194C394.74 525.315 396.3 534.888 397.81 544.853C399.79 557.769 397.68 573.237 399.47 585.122C399.58 585.877 399.7 586.613 399.81 587.349Z" fill="#3F3D56"/>
<path d="M273.615 387.628C301.691 387.628 324.451 365.883 324.451 339.059C324.451 312.235 301.691 290.49 273.615 290.49C245.539 290.49 222.779 312.235 222.779 339.059C222.779 365.883 245.539 387.628 273.615 387.628Z" fill="#A0616A"/>
<path d="M357.45 274.695C356.445 272.454 355.108 270.363 353.48 268.485C345.76 259.476 331.72 255.511 317.31 266.173C314.536 265.581 311.645 265.74 308.96 266.632C307.693 267.07 306.505 267.696 305.44 268.485C303.258 270.111 301.556 272.251 300.5 274.695C299.936 275.986 299.565 277.347 299.4 278.737C295.838 276.968 292.068 275.612 288.17 274.695C278.606 272.422 268.604 272.422 259.04 274.695C255.975 275.436 253.024 276.554 250.26 278.02C245.58 280.6 242.89 283.858 242.41 287.479C235.66 287.842 228.64 291.233 223.41 296.794C222.82 297.415 222.25 298.064 221.72 298.733C217.322 304.231 214.958 310.969 215 317.889V319.102H216.27C219.75 319.099 223.197 319.741 226.42 320.994C228.509 321.795 230.487 322.838 232.31 324.099C233.503 324.907 234.629 325.802 235.68 326.774C238.116 329.027 240.179 331.62 241.8 334.465C245.955 341.654 247.395 349.989 245.88 358.073C245.532 359.944 245.024 361.784 244.36 363.576C243.415 366.132 242.171 368.577 240.65 370.866C240.59 370.951 240.54 371.037 240.48 371.123C239.81 372.146 239.17 373.187 238.57 374.238C238.12 375.021 237.7 375.824 237.31 376.627C236.17 378.86 235.207 381.172 234.43 383.544C233.038 387.738 232.218 392.085 231.99 396.48C231.92 397.645 231.9 398.811 231.94 399.976C231.999 402.981 232.344 405.974 232.97 408.919C233.06 409.32 233.15 409.712 233.24 410.113L233.97 413.161L235.7 420.431L236.9 425.438L238.01 430.081L239.65 427.836C240.21 427.071 241.62 424.721 243.51 421.396C244.76 419.228 246.21 416.639 247.78 413.811C249.97 409.846 252.37 405.422 254.72 401.008C255.67 399.222 256.61 397.445 257.52 395.706C259.24 392.41 260.86 389.228 262.25 386.4C263.53 383.792 264.62 381.48 265.43 379.627C265.68 380.84 265.89 382.072 266.05 383.314C266.23 384.575 266.36 385.856 266.43 387.136C266.45 387.327 266.46 387.528 266.47 387.719L266.51 388.502L266.52 388.731L267.58 388.865C273.694 389.491 279.857 389.536 285.98 388.999H285.99C294.101 388.416 302.059 386.573 309.55 383.544C313.805 381.78 317.777 379.452 321.35 376.627C323.02 375.306 324.578 373.862 326.01 372.308C326.37 371.917 326.72 371.525 327.06 371.124C329.039 368.8 330.733 366.268 332.11 363.576C333.032 361.8 333.814 359.96 334.45 358.073C338.29 346.962 338.07 333.099 333.79 316.628C334.946 316.415 336.053 316.007 337.06 315.424C340.2 313.618 342.38 310.036 343.06 305.66L344.14 305.937C347.969 304.233 351.379 301.779 354.15 298.733C354.699 298.113 355.213 297.466 355.69 296.794C360.58 289.915 360.62 281.66 357.45 274.695Z" fill="#2F2E41"/>
<path opacity="0.2" d="M190.32 517.152L198.817 485.823L206.32 512.856L190.32 517.152Z" fill="black"/>
<path d="M416.43 496.739C413.39 536.751 416.54 554.368 399.76 587.358C384.493 594.497 368.59 600.323 352.24 604.765C350.54 605.224 348.837 605.67 347.13 606.103C325.623 611.54 303.529 614.582 281.29 615.17C280.13 615.198 278.99 615.217 277.89 615.237C277.5 615.246 277.12 615.256 276.74 615.256C275.49 615.265 274.25 615.275 273 615.275C249.564 615.291 226.213 612.587 203.46 607.221C201.18 606.686 198.91 606.122 196.65 605.53C184.746 602.425 173.064 598.586 161.68 594.036C155.68 591.648 149.787 589.071 144 586.307C142.69 585.677 141.38 585.046 140.09 584.396C133.46 573.256 129.69 559.709 129.61 543.429C134.2 515.379 406.29 472.548 416.43 496.739Z" fill="#2F2E41"/>
<path opacity="0.2" d="M416.422 503.591C416.577 501.114 416.751 498.555 416.953 495.891C406.813 471.7 134.723 514.531 130.133 542.581C130.146 545.153 130.261 547.649 130.455 550.085C141.57 522.399 400.059 481.692 416.422 503.591Z" fill="black"/>
<path d="M135.177 485.754L105.399 499.979L127.997 567.63C129.62 572.488 132.529 576.863 136.443 580.331C140.356 583.798 145.141 586.241 150.333 587.422V587.422C156.735 588.879 163.457 588.349 169.523 585.91C175.589 583.472 180.684 579.25 184.07 573.859L243.995 475.726C248.242 468.964 249.553 460.884 247.648 453.211C245.743 445.538 240.773 438.881 233.8 434.661V434.661C230.049 432.392 225.841 430.903 221.448 430.29C217.055 429.678 212.577 429.956 208.304 431.106C204.031 432.256 200.06 434.253 196.648 436.967C193.237 439.681 190.462 443.051 188.504 446.857L151.928 521.317L135.177 485.754Z" fill="#3F3D56"/>
</g>
<path d="M142.096 383.946C142.162 383.08 142.033 382.21 141.718 381.396C141.403 380.581 140.909 379.84 140.269 379.223C139.629 378.606 138.859 378.128 138.009 377.819C137.159 377.51 136.25 377.379 135.343 377.435C135.005 377.447 134.668 377.487 134.338 377.555L94.5756 386.137C93.6871 386.343 92.8536 386.724 92.1287 387.256C91.4038 387.789 90.8037 388.46 90.3669 389.228C89.7838 389.248 89.2047 389.329 88.6395 389.467C87.4021 389.735 86.2322 390.234 85.1963 390.934C84.1605 391.633 83.2791 392.522 82.6024 393.547C81.9258 394.572 81.4672 395.715 81.2528 396.91C81.0384 398.104 81.0724 399.328 81.3529 400.51C81.6333 401.692 82.1548 402.81 82.8874 403.8C83.6201 404.789 84.5495 405.631 85.6228 406.278C87.7903 407.583 90.4119 408.013 92.9109 407.472C94.3333 407.156 95.6639 406.541 96.8054 405.671L110.279 441.919C110.952 443.055 111.992 443.953 113.243 444.477C114.494 445.002 115.89 445.126 117.22 444.83L143.069 439.249C144.39 438.953 145.578 438.266 146.464 437.284C147.35 436.303 147.888 435.079 148 433.788L142.096 383.946ZM92.3141 404.891C90.5294 405.276 88.6579 404.968 87.1099 404.037C85.5619 403.105 84.4638 401.625 84.0564 399.921C83.649 398.217 83.9655 396.428 84.9365 394.947C85.9075 393.465 87.4537 392.412 89.2362 392.018C89.3618 391.988 89.4876 392.018 89.6131 391.988C89.6036 393.081 89.8962 394.158 90.4612 395.109L95.3921 403.331C94.5337 404.108 93.4695 404.648 92.3141 404.891Z" fill="#2F2E41"/>
<path d="M135.343 377.435C135.72 382.236 127.114 387.757 115.587 389.948C105.003 392.018 95.5178 390.578 92.848 386.797C93.3846 386.493 93.9675 386.27 94.5756 386.137L134.338 377.555C134.668 377.487 135.005 377.447 135.343 377.435V377.435Z" fill="#3F3D56"/>
<path d="M120.967 418.617C120.911 418.617 120.857 418.609 120.804 418.591L114.303 416.453C114.224 416.427 114.154 416.383 114.097 416.325C114.041 416.267 114.001 416.196 113.98 416.119C113.96 416.042 113.96 415.961 113.98 415.885C114.001 415.808 114.041 415.737 114.097 415.678L118.933 410.649C118.977 410.602 119.03 410.564 119.09 410.538C119.15 410.511 119.214 410.496 119.28 410.493C119.346 410.49 119.411 410.5 119.473 410.521C119.535 410.543 119.592 410.576 119.64 410.618C119.689 410.661 119.728 410.712 119.756 410.769C119.783 410.826 119.799 410.888 119.802 410.951C119.804 411.013 119.794 411.076 119.771 411.135C119.748 411.194 119.714 411.248 119.669 411.294L115.35 415.787L121.129 417.688C121.241 417.725 121.336 417.798 121.396 417.896C121.457 417.993 121.479 418.107 121.46 418.219C121.44 418.33 121.38 418.431 121.29 418.504C121.2 418.577 121.085 418.617 120.967 418.617V418.617Z" fill="#6C63FF"/>
<path d="M129.878 416.875C129.779 416.875 129.681 416.846 129.599 416.793C129.516 416.74 129.452 416.664 129.415 416.576C129.378 416.488 129.369 416.391 129.389 416.298C129.41 416.205 129.459 416.12 129.531 416.054L133.925 411.994L128.022 409.67C127.961 409.646 127.906 409.611 127.859 409.567C127.813 409.523 127.776 409.47 127.75 409.412C127.725 409.354 127.712 409.292 127.712 409.229C127.712 409.167 127.724 409.104 127.749 409.046C127.775 408.988 127.811 408.936 127.858 408.891C127.904 408.847 127.959 408.811 128.02 408.787C128.081 408.763 128.146 408.751 128.211 408.751C128.277 408.751 128.342 408.763 128.403 408.787L135.012 411.389C135.089 411.42 135.157 411.468 135.209 411.529C135.262 411.59 135.297 411.663 135.313 411.741C135.329 411.819 135.324 411.899 135.299 411.975C135.273 412.051 135.229 412.119 135.169 412.174L130.226 416.74C130.133 416.826 130.008 416.875 129.878 416.875V416.875Z" fill="#6C63FF"/>
<path d="M122.332 421.54C122.282 421.54 122.232 421.532 122.185 421.518C122.122 421.5 122.063 421.47 122.013 421.43C121.962 421.39 121.92 421.341 121.889 421.285C121.859 421.23 121.84 421.169 121.834 421.106C121.827 421.044 121.834 420.981 121.853 420.921L126.468 406.59C126.508 406.469 126.596 406.368 126.713 406.31C126.83 406.251 126.967 406.239 127.093 406.276C127.22 406.313 127.326 406.397 127.388 406.508C127.45 406.62 127.463 406.751 127.424 406.872L122.81 421.203C122.778 421.3 122.715 421.386 122.628 421.446C122.542 421.507 122.438 421.54 122.332 421.54V421.54Z" fill="#6C63FF"/>
</g>
<mask id="mask2_6:110" style="mask-type:alpha" maskUnits="userSpaceOnUse" x="46" y="189" width="403" height="398">
<path d="M449 388C449.07 434.975 432.245 480.447 401.525 516.31C400.41 517.619 399.273 518.906 398.116 520.187C384.496 535.315 368.63 548.314 351.06 558.741C347.03 561.13 342.911 563.382 338.705 565.496C338.279 565.709 337.847 565.922 337.422 566.129C336.913 566.384 336.397 566.632 335.881 566.88C325.236 572.025 314.148 576.224 302.749 579.426C301.563 579.756 300.376 580.077 299.186 580.39C284.19 584.308 268.786 586.501 253.28 586.924C252.471 586.945 251.676 586.959 250.909 586.972C250.637 586.979 250.373 586.986 250.108 586.986C249.236 586.993 248.371 587 247.5 587C231.16 587.012 214.879 585.063 199.014 581.195C197.425 580.81 195.842 580.403 194.266 579.976C185.966 577.739 177.822 574.972 169.884 571.693C165.701 569.971 161.592 568.114 157.557 566.122C156.644 565.668 155.73 565.213 154.831 564.745C154.447 564.559 154.071 564.359 153.694 564.167C132.191 552.958 112.907 538.016 96.7655 520.056C95.6499 518.824 94.5552 517.57 93.4745 516.31C75.69 495.486 62.424 471.277 54.4979 445.183C46.5719 419.09 44.1547 391.667 47.3961 364.613C50.6374 337.56 59.4683 311.451 73.3417 287.905C87.2151 264.359 105.836 243.876 128.05 227.726C129.194 226.893 130.344 226.066 131.509 225.261C131.739 225.102 131.969 224.944 132.199 224.786C152.658 210.632 175.621 200.391 199.9 194.591C201.28 194.254 202.661 193.937 204.055 193.641C230.353 187.96 257.531 187.49 284.014 192.257C285.401 192.512 286.789 192.773 288.169 193.056C312.231 197.93 335.18 207.133 355.871 220.206C356.331 220.496 356.791 220.785 357.251 221.088C358.178 221.68 359.106 222.286 360.019 222.899C387.428 241.097 409.881 265.676 425.399 294.469C440.917 323.261 449.022 355.383 449 388V388Z" fill="#F2F2F2"/>
</mask>
<g mask="url(#mask2_6:110)">
<path d="M107.843 499.314L130.177 488.645L111.566 440.636L106.661 416.424C106.023 413.278 104.533 410.348 102.339 407.925C100.145 405.502 97.3236 403.672 94.157 402.617C90.9905 401.562 87.5897 401.319 84.2943 401.914C80.999 402.508 77.9247 403.918 75.3785 406.003V406.003C71.6054 409.093 69.2363 413.463 68.7712 418.19C68.3062 422.917 69.7816 427.631 72.886 431.339L91.0932 453.082L107.843 499.314Z" fill="#A0616A"/>
</g>
</g>
<defs>
<clipPath id="clip0_6:110">
<rect width="657" height="664" fill="white" transform="translate(-61)"/>
</clipPath>
</defs>
</svg>
