<svg width="82" height="56" viewBox="0 0 82 56" fill="none" xmlns="http://www.w3.org/2000/svg">
<ellipse cx="15" cy="28" rx="12" ry="13" fill="white"/>
<path d="M4.91007 19.0935C5.91727 17.3053 7.39209 15.8456 9.33453 14.7143C11.277 13.583 13.4892 13.0174 15.9712 13.0174C18.6331 13.0174 21.0252 13.656 23.1475 14.9332C25.2698 16.2105 26.9424 18.0169 28.1655 20.3525C29.3885 22.6515 30 25.3338 30 28.3992C30 31.4281 29.3885 34.1286 28.1655 36.5007C26.9424 38.8727 25.2518 40.7156 23.0935 42.0294C20.9712 43.3431 18.5971 44 15.9712 44C13.4173 44 11.1691 43.4344 9.22662 42.3031C7.32014 41.1718 5.88129 39.7303 4.91007 37.9786V43.5073H0V3H4.91007V19.0935ZM24.982 28.3992C24.982 26.1366 24.5324 24.166 23.6331 22.4873C22.7338 20.8086 21.5108 19.5314 19.964 18.6555C18.4532 17.7797 16.7806 17.3418 14.946 17.3418C13.1475 17.3418 11.4748 17.798 9.92806 18.7103C8.41727 19.5861 7.19424 20.8816 6.25899 22.5968C5.35971 24.2755 4.91007 26.2279 4.91007 28.4539C4.91007 30.7165 5.35971 32.7054 6.25899 34.4206C7.19424 36.0992 8.41727 37.3947 9.92806 38.3071C11.4748 39.1829 13.1475 39.6208 14.946 39.6208C16.7806 39.6208 18.4532 39.1829 19.964 38.3071C21.5108 37.3947 22.7338 36.0992 23.6331 34.4206C24.5324 32.7054 24.982 30.6983 24.982 28.3992Z" fill="white"/>
<path d="M23.0789 37.5068H23.5789V37.0068V26.1361C23.5789 23.9142 23.0574 22.1922 21.8968 21.1013C20.7537 20.006 19.1038 19.5 17.0362 19.5C15.9076 19.5 14.831 19.7325 13.8113 20.1974C13.0766 20.5175 12.4504 20.9637 11.937 21.5336L11.7038 20.2238L11.6303 19.8115H11.2115H9H8.5V20.3115V37.0068V37.5068H9H11.741H12.241V37.0068V28.3477C12.241 26.4444 12.5872 25.0646 13.2135 24.1435C13.7879 23.2989 14.8656 22.8049 16.6312 22.8049C17.7905 22.8049 18.5706 23.1148 19.0685 23.65C19.5727 24.1921 19.869 25.0521 19.869 26.323V37.0068V37.5068H20.369H23.0789ZM30.6776 29.6886H41.5859H42.0859V29.1886V27.5378C42.0859 25.9625 41.7948 24.566 41.1945 23.3633C40.6147 22.139 39.7611 21.1819 38.6368 20.5068C37.5266 19.8277 36.2076 19.5 34.7022 19.5C33.1445 19.5 31.7522 19.8741 30.5423 20.6359L30.5423 20.6359L30.5387 20.6382C29.3513 21.3999 28.4305 22.4824 27.772 23.8654L27.7719 23.8654L27.7692 23.8713C27.1299 25.2602 26.8201 26.903 26.8201 28.7837C26.8201 30.6902 27.1628 32.3412 27.8725 33.7164L27.8724 33.7164L27.8771 33.725C28.6063 35.0729 29.6199 36.1011 30.9156 36.7937L30.9187 36.7953C32.2251 37.4817 33.7086 37.8183 35.3563 37.8183C36.521 37.8183 37.5441 37.7234 38.4193 37.527C39.2866 37.3531 40.1601 37.0719 41.0393 36.6859L41.3383 36.5546V36.2281V33.8297V33.0714L40.6414 33.3701C39.7927 33.7338 38.9681 34.0152 38.1673 34.2157C37.4038 34.3914 36.5098 34.4822 35.4809 34.4822C33.9249 34.4822 32.7713 34.0295 31.9523 33.1764C31.2278 32.3837 30.7856 31.2397 30.6776 29.6886ZM37.3179 23.8744L37.3179 23.8744L37.3212 23.8789C37.813 24.5452 38.1146 25.4125 38.1978 26.5083H30.7845C30.9688 25.3587 31.3597 24.4857 31.9275 23.8546C32.5872 23.1237 33.4824 22.7427 34.671 22.7427C35.9488 22.7427 36.7928 23.1459 37.3179 23.8744ZM60.3764 31.8812C60.3732 31.8953 60.3701 31.9093 60.3669 31.9233C60.3616 31.9039 60.3563 31.8845 60.3509 31.865C60.1418 31.0288 59.9216 30.2527 59.6902 29.5371L56.8259 20.1346L56.7179 19.7803H56.3476H53.3574H52.9905L52.8804 20.1303L49.9218 29.5354C49.7728 30.0038 49.6248 30.5326 49.4777 31.1209C49.3998 31.4215 49.3248 31.7163 49.2528 32.0052C49.2369 31.9336 49.2206 31.8611 49.2039 31.7877C48.9952 30.8697 48.7762 29.9621 48.5466 29.0647L48.5463 29.0634L46.2413 20.1551L46.1444 19.7803H45.7573H42.9228H42.2672L42.4406 20.4126L47.0193 37.1079L47.1202 37.4756H47.5015H50.6163H50.9817L51.0927 37.1276L54.0809 27.7582C54.0812 27.7573 54.0815 27.7563 54.0818 27.7553C54.3744 26.8773 54.6159 26.0281 54.8059 25.2079C55.0154 26.0245 55.256 26.861 55.5275 27.7175C55.5278 27.7183 55.528 27.7192 55.5283 27.7201L58.3922 37.1213L58.5002 37.4756H58.8705H62.0788H62.4588L62.5605 37.1096L67.2016 20.4142L67.3778 19.7803H66.7198H63.9165H63.5307L63.4329 20.1535L61.0968 29.0618L61.0966 29.0624C60.847 30.0192 60.6078 30.9553 60.3789 31.8707L60.3788 31.8707L60.3764 31.8812ZM70.788 37.5257L70.7906 37.5263C71.6866 37.723 72.7314 37.8183 73.9191 37.8183C76.0171 37.8183 77.7474 37.3906 79.0621 36.4839C80.4179 35.5489 81.0848 34.1604 81.0848 32.3969C81.0848 31.4324 80.8716 30.5913 80.4088 29.9077C79.9624 29.2278 79.3263 28.6685 78.5227 28.2221C77.7485 27.7919 76.8224 27.3775 75.7485 26.9773C74.7001 26.5661 73.8617 26.2184 73.2307 25.9337C72.6416 25.6383 72.2668 25.3658 72.0596 25.1294C71.8703 24.8938 71.7716 24.6145 71.7716 24.2673C71.7716 23.8375 71.9546 23.5031 72.4032 23.2307L72.4074 23.2281C72.8969 22.9243 73.6514 22.7427 74.729 22.7427C75.4956 22.7427 76.2407 22.8409 76.9658 23.0368C77.7146 23.2392 78.4317 23.4817 79.1174 23.764L79.5732 23.9517L79.7673 23.4986L80.7018 21.3183L80.8937 20.8704L80.4509 20.667C79.648 20.2981 78.7836 20.0174 77.8594 19.8235C76.9466 19.6067 75.9647 19.5 74.9159 19.5C72.9816 19.5 71.3608 19.8974 70.0927 20.7353L70.0892 20.7376C68.8048 21.6017 68.1551 22.8497 68.1551 24.423C68.1551 25.4118 68.3804 26.2691 68.8712 26.9563C69.3396 27.6119 69.9951 28.157 70.8158 28.6006C71.6078 29.0288 72.5524 29.4527 73.6462 29.8734L73.6492 29.8745C74.7405 30.2863 75.553 30.6492 76.1006 30.9622L76.1071 30.9658C76.683 31.2835 77.019 31.57 77.1826 31.808C77.3519 32.0543 77.4372 32.3287 77.4372 32.6461C77.4372 33.2265 77.208 33.6804 76.7115 34.0462C76.2168 34.3901 75.3397 34.6068 73.9814 34.6068C73.0544 34.6068 72.1366 34.4789 71.2269 34.2224C70.3134 33.938 69.5426 33.6365 68.9099 33.3202L68.1863 32.9584V33.7674V36.2592V36.5638L68.457 36.7035C69.1445 37.0584 69.9229 37.3311 70.788 37.5257Z" fill="#61DAFB" stroke="#61DAFB"/>
</svg>
